<mxfile host="app.diagrams.net" modified="2023-06-22T20:23:34.354Z" agent="Mozilla/5.0 (X11; Linux x86_64) AppleWebKit/537.36 (KHTML, like Gecko) Chrome/114.0.0.0 Safari/537.36 " etag="4c9wRcVnZcxd78a2VRWF" version="21.5.0">
  <diagram name="Page-1" id="joKGbvzqxhhO8I6U3BwK">
    <mxGraphModel dx="880" dy="479" grid="1" gridSize="10" guides="1" tooltips="1" connect="1" arrows="1" fold="1" page="1" pageScale="1" pageWidth="850" pageHeight="1100" math="0" shadow="0">
      <root>
        <mxCell id="0" />
        <mxCell id="1" parent="0" />
        <mxCell id="su5k78VnVavpaH0BT2L8-50" value="" style="shape=ext;double=1;rounded=1;whiteSpace=wrap;html=1;labelBorderColor=#474857;strokeColor=#6c8ebf;fillColor=#dae8fc;" vertex="1" parent="1">
          <mxGeometry x="30" y="60" width="360" height="360" as="geometry" />
        </mxCell>
        <mxCell id="su5k78VnVavpaH0BT2L8-3" value="Plant" style="swimlane;childLayout=stackLayout;horizontal=1;startSize=50;horizontalStack=0;rounded=1;fontSize=14;fontStyle=0;strokeWidth=2;resizeParent=0;resizeLast=1;shadow=0;dashed=0;align=center;arcSize=4;whiteSpace=wrap;html=1;" vertex="1" collapsed="1" parent="1">
          <mxGeometry x="158" y="80" width="80" height="50" as="geometry">
            <mxRectangle x="158" y="80" width="145" height="150" as="alternateBounds" />
          </mxGeometry>
        </mxCell>
        <mxCell id="su5k78VnVavpaH0BT2L8-4" value="+id&lt;br&gt;+scientific_name&lt;br&gt;+common_name_en&lt;br&gt;+..." style="align=left;strokeColor=none;fillColor=none;spacingLeft=4;fontSize=12;verticalAlign=top;resizable=0;rotatable=0;part=1;html=1;" vertex="1" parent="su5k78VnVavpaH0BT2L8-3">
          <mxGeometry y="50" width="145" height="100" as="geometry" />
        </mxCell>
        <mxCell id="su5k78VnVavpaH0BT2L8-5" value="&lt;b&gt;&lt;font style=&quot;font-size: 18px;&quot;&gt;PostGIS&lt;/font&gt;&lt;/b&gt;" style="rounded=1;align=left;fillColor=#F1F2F4;strokeColor=none;html=1;fontColor=#596780;fontSize=12;spacingLeft=26;" vertex="1" parent="1">
          <mxGeometry x="38" y="190" width="120" height="33" as="geometry" />
        </mxCell>
        <mxCell id="su5k78VnVavpaH0BT2L8-6" value="" style="shape=mxgraph.mscae.intune.subscription_portal;fillColor=#596780;strokeColor=none;fontColor=#ffffff;labelPosition=right;verticalLabelPosition=middle;align=left;verticalAlign=middle;html=1;whiteSpace=wrap;spacingLeft=5" vertex="1" parent="su5k78VnVavpaH0BT2L8-5">
          <mxGeometry y="0.5" width="12" height="12" relative="1" as="geometry">
            <mxPoint x="10" y="-6" as="offset" />
          </mxGeometry>
        </mxCell>
        <mxCell id="su5k78VnVavpaH0BT2L8-45" value="" style="edgeStyle=orthogonalEdgeStyle;rounded=0;orthogonalLoop=1;jettySize=auto;html=1;" edge="1" parent="1" source="su5k78VnVavpaH0BT2L8-12" target="su5k78VnVavpaH0BT2L8-4">
          <mxGeometry relative="1" as="geometry" />
        </mxCell>
        <mxCell id="su5k78VnVavpaH0BT2L8-12" value="Location" style="swimlane;childLayout=stackLayout;horizontal=1;startSize=50;horizontalStack=0;rounded=1;fontSize=14;fontStyle=0;strokeWidth=2;resizeParent=0;resizeLast=1;shadow=0;dashed=0;align=center;arcSize=4;whiteSpace=wrap;html=1;" vertex="1" collapsed="1" parent="1">
          <mxGeometry x="158" y="170" width="80" height="50" as="geometry">
            <mxRectangle x="158" y="280" width="145" height="150" as="alternateBounds" />
          </mxGeometry>
        </mxCell>
        <mxCell id="su5k78VnVavpaH0BT2L8-13" value="+id&lt;br&gt;+location&lt;br&gt;+area&lt;br&gt;+ plant (FK)&lt;br&gt;+ author (FK)" style="align=left;strokeColor=none;fillColor=none;spacingLeft=4;fontSize=12;verticalAlign=top;resizable=0;rotatable=0;part=1;html=1;" vertex="1" parent="su5k78VnVavpaH0BT2L8-12">
          <mxGeometry y="50" width="145" height="100" as="geometry" />
        </mxCell>
        <mxCell id="su5k78VnVavpaH0BT2L8-14" value="Plant Image" style="swimlane;childLayout=stackLayout;horizontal=1;startSize=50;horizontalStack=0;rounded=1;fontSize=14;fontStyle=0;strokeWidth=2;resizeParent=0;resizeLast=1;shadow=0;dashed=0;align=center;arcSize=4;whiteSpace=wrap;html=1;" vertex="1" collapsed="1" parent="1">
          <mxGeometry x="275" y="80" width="80" height="50" as="geometry">
            <mxRectangle x="350" y="80" width="150" height="150" as="alternateBounds" />
          </mxGeometry>
        </mxCell>
        <mxCell id="su5k78VnVavpaH0BT2L8-15" value="+id&lt;br&gt;+type (main, secondary)&lt;br&gt;+image (url)&lt;br&gt;+plant_id (FK)" style="align=left;strokeColor=none;fillColor=none;spacingLeft=4;fontSize=12;verticalAlign=top;resizable=0;rotatable=0;part=1;html=1;" vertex="1" parent="su5k78VnVavpaH0BT2L8-14">
          <mxGeometry y="50" width="150" height="100" as="geometry" />
        </mxCell>
        <mxCell id="su5k78VnVavpaH0BT2L8-16" value="Location Image" style="swimlane;childLayout=stackLayout;horizontal=1;startSize=50;horizontalStack=0;rounded=1;fontSize=14;fontStyle=0;strokeWidth=2;resizeParent=0;resizeLast=1;shadow=0;dashed=0;align=center;arcSize=4;whiteSpace=wrap;html=1;" vertex="1" collapsed="1" parent="1">
          <mxGeometry x="275" y="170" width="80" height="50" as="geometry">
            <mxRectangle x="355" y="280" width="145" height="150" as="alternateBounds" />
          </mxGeometry>
        </mxCell>
        <mxCell id="su5k78VnVavpaH0BT2L8-17" value="+id&lt;br&gt;+image (url)&lt;br&gt;+ location_id (FK)" style="align=left;strokeColor=none;fillColor=none;spacingLeft=4;fontSize=12;verticalAlign=top;resizable=0;rotatable=0;part=1;html=1;" vertex="1" parent="su5k78VnVavpaH0BT2L8-16">
          <mxGeometry y="50" width="145" height="100" as="geometry" />
        </mxCell>
        <mxCell id="su5k78VnVavpaH0BT2L8-20" value="" style="sketch=0;outlineConnect=0;fontColor=#232F3E;gradientColor=none;fillColor=#2E27AD;strokeColor=none;dashed=0;verticalLabelPosition=bottom;verticalAlign=top;align=center;html=1;fontSize=12;fontStyle=0;aspect=fixed;pointerEvents=1;shape=mxgraph.aws4.rds_postgresql_instance;" vertex="1" parent="1">
          <mxGeometry x="38" y="76" width="108" height="108" as="geometry" />
        </mxCell>
        <mxCell id="su5k78VnVavpaH0BT2L8-21" value="&lt;font style=&quot;font-size: 15px;&quot;&gt;Amazon S3&lt;/font&gt;" style="sketch=0;outlineConnect=0;fontColor=#232F3E;gradientColor=none;strokeColor=#ffffff;fillColor=#232F3E;dashed=0;verticalLabelPosition=middle;verticalAlign=bottom;align=center;html=1;whiteSpace=wrap;fontSize=10;fontStyle=1;spacing=3;shape=mxgraph.aws4.productIcon;prIcon=mxgraph.aws4.s3;" vertex="1" parent="1">
          <mxGeometry x="1030" y="135" width="160" height="210" as="geometry" />
        </mxCell>
        <mxCell id="su5k78VnVavpaH0BT2L8-44" value="" style="edgeStyle=orthogonalEdgeStyle;rounded=0;orthogonalLoop=1;jettySize=auto;html=1;" edge="1" parent="1" source="su5k78VnVavpaH0BT2L8-29" target="su5k78VnVavpaH0BT2L8-26">
          <mxGeometry relative="1" as="geometry" />
        </mxCell>
        <mxCell id="su5k78VnVavpaH0BT2L8-52" value="" style="shape=ext;double=1;rounded=1;whiteSpace=wrap;html=1;labelBorderColor=#474857;strokeColor=#82b366;fillColor=#d5e8d4;" vertex="1" parent="1">
          <mxGeometry x="520" y="60" width="360" height="360" as="geometry" />
        </mxCell>
        <mxCell id="su5k78VnVavpaH0BT2L8-63" value="" style="whiteSpace=wrap;html=1;shape=mxgraph.basic.cloud_rect;fillColor=#e1d5e7;strokeColor=#9673a6;opacity=50;" vertex="1" parent="1">
          <mxGeometry x="146" y="250" width="670" height="170" as="geometry" />
        </mxCell>
        <mxCell id="su5k78VnVavpaH0BT2L8-27" value="Activation&lt;br&gt;UUID" style="swimlane;childLayout=stackLayout;horizontal=1;startSize=50;horizontalStack=0;rounded=1;fontSize=14;fontStyle=0;strokeWidth=2;resizeParent=0;resizeLast=1;shadow=0;dashed=0;align=center;arcSize=4;whiteSpace=wrap;html=1;" vertex="1" collapsed="1" parent="1">
          <mxGeometry x="275" y="270" width="85" height="50" as="geometry">
            <mxRectangle x="300" y="270" width="145" height="100" as="alternateBounds" />
          </mxGeometry>
        </mxCell>
        <mxCell id="su5k78VnVavpaH0BT2L8-28" value="+id (uuid)&lt;br&gt;+user (FK)&lt;br&gt;+expiry_date" style="align=left;strokeColor=none;fillColor=none;spacingLeft=4;fontSize=12;verticalAlign=top;resizable=0;rotatable=0;part=1;html=1;" vertex="1" parent="su5k78VnVavpaH0BT2L8-27">
          <mxGeometry y="50" width="145" height="50" as="geometry" />
        </mxCell>
        <mxCell id="su5k78VnVavpaH0BT2L8-25" value="User" style="swimlane;childLayout=stackLayout;horizontal=1;startSize=50;horizontalStack=0;rounded=1;fontSize=14;fontStyle=0;strokeWidth=2;resizeParent=0;resizeLast=1;shadow=0;dashed=0;align=center;arcSize=4;whiteSpace=wrap;html=1;" vertex="1" collapsed="1" parent="1">
          <mxGeometry x="158" y="270" width="80" height="50" as="geometry">
            <mxRectangle x="158" y="270" width="142" height="170" as="alternateBounds" />
          </mxGeometry>
        </mxCell>
        <mxCell id="su5k78VnVavpaH0BT2L8-26" value="+id&lt;br&gt;+ username&lt;br&gt;+password&lt;br&gt;+ email&lt;br&gt;+active&lt;br&gt;+..." style="align=left;strokeColor=none;fillColor=none;spacingLeft=4;fontSize=12;verticalAlign=top;resizable=0;rotatable=0;part=1;html=1;" vertex="1" parent="su5k78VnVavpaH0BT2L8-25">
          <mxGeometry y="50" width="142" height="120" as="geometry" />
        </mxCell>
        <mxCell id="su5k78VnVavpaH0BT2L8-29" value="ResetUUID" style="swimlane;childLayout=stackLayout;horizontal=1;startSize=50;horizontalStack=0;rounded=1;fontSize=14;fontStyle=0;strokeWidth=2;resizeParent=0;resizeLast=1;shadow=0;dashed=0;align=center;arcSize=4;whiteSpace=wrap;html=1;" vertex="1" collapsed="1" parent="1">
          <mxGeometry x="275" y="350" width="80" height="50" as="geometry">
            <mxRectangle x="355" y="620" width="145" height="100" as="alternateBounds" />
          </mxGeometry>
        </mxCell>
        <mxCell id="su5k78VnVavpaH0BT2L8-30" value="+id (uuid)&lt;br style=&quot;border-color: var(--border-color);&quot;&gt;+user (FK)&lt;br style=&quot;border-color: var(--border-color);&quot;&gt;+expiry_date" style="align=left;strokeColor=none;fillColor=none;spacingLeft=4;fontSize=12;verticalAlign=top;resizable=0;rotatable=0;part=1;html=1;" vertex="1" parent="su5k78VnVavpaH0BT2L8-29">
          <mxGeometry y="50" width="145" height="50" as="geometry" />
        </mxCell>
        <mxCell id="su5k78VnVavpaH0BT2L8-40" style="edgeStyle=orthogonalEdgeStyle;rounded=0;orthogonalLoop=1;jettySize=auto;html=1;" edge="1" parent="1" source="su5k78VnVavpaH0BT2L8-17" target="su5k78VnVavpaH0BT2L8-13">
          <mxGeometry relative="1" as="geometry" />
        </mxCell>
        <mxCell id="su5k78VnVavpaH0BT2L8-42" value="" style="edgeStyle=orthogonalEdgeStyle;rounded=0;orthogonalLoop=1;jettySize=auto;html=1;" edge="1" parent="1" source="su5k78VnVavpaH0BT2L8-15" target="su5k78VnVavpaH0BT2L8-4">
          <mxGeometry relative="1" as="geometry" />
        </mxCell>
        <mxCell id="su5k78VnVavpaH0BT2L8-43" value="" style="edgeStyle=orthogonalEdgeStyle;rounded=0;orthogonalLoop=1;jettySize=auto;html=1;" edge="1" parent="1" source="su5k78VnVavpaH0BT2L8-28" target="su5k78VnVavpaH0BT2L8-26">
          <mxGeometry relative="1" as="geometry" />
        </mxCell>
        <mxCell id="su5k78VnVavpaH0BT2L8-47" value="" style="endArrow=classic;html=1;rounded=0;exitX=0.5;exitY=1;exitDx=0;exitDy=0;" edge="1" parent="1" source="su5k78VnVavpaH0BT2L8-12" target="su5k78VnVavpaH0BT2L8-25">
          <mxGeometry width="50" height="50" relative="1" as="geometry">
            <mxPoint x="210" y="230" as="sourcePoint" />
            <mxPoint x="500" y="480" as="targetPoint" />
          </mxGeometry>
        </mxCell>
        <mxCell id="su5k78VnVavpaH0BT2L8-51" value="" style="shape=image;html=1;verticalAlign=top;verticalLabelPosition=bottom;labelBackgroundColor=#ffffff;imageAspect=0;aspect=fixed;image=https://cdn2.iconfinder.com/data/icons/boxicons-logos/24/bxl-django-128.png" vertex="1" parent="1">
          <mxGeometry x="540" y="80" width="74" height="74" as="geometry" />
        </mxCell>
        <mxCell id="su5k78VnVavpaH0BT2L8-57" value="BotoS3&lt;br&gt;Image Upload" style="shape=singleArrow;whiteSpace=wrap;html=1;" vertex="1" parent="1">
          <mxGeometry x="880" y="195" width="140" height="90" as="geometry" />
        </mxCell>
        <mxCell id="su5k78VnVavpaH0BT2L8-58" value="" style="whiteSpace=wrap;html=1;shape=mxgraph.basic.cloud_rect;fillColor=#fff2cc;strokeColor=#d6b656;opacity=30;" vertex="1" parent="1">
          <mxGeometry x="146" y="70" width="670" height="170" as="geometry" />
        </mxCell>
        <mxCell id="su5k78VnVavpaH0BT2L8-59" value="&lt;b&gt;&lt;font style=&quot;font-size: 18px;&quot;&gt;accounts&lt;br&gt;-app&lt;/font&gt;&lt;/b&gt;" style="rounded=1;whiteSpace=wrap;html=1;" vertex="1" parent="1">
          <mxGeometry x="550" y="280" width="120" height="60" as="geometry" />
        </mxCell>
        <mxCell id="su5k78VnVavpaH0BT2L8-62" value="&lt;font style=&quot;font-size: 22px;&quot;&gt;&lt;b&gt;api-app&lt;/b&gt;&lt;/font&gt;" style="rounded=1;whiteSpace=wrap;html=1;" vertex="1" parent="1">
          <mxGeometry x="550" y="170" width="120" height="60" as="geometry" />
        </mxCell>
        <mxCell id="su5k78VnVavpaH0BT2L8-53" value="&lt;b&gt;psycopg-binary adapter&lt;br&gt;&lt;/b&gt;" style="shape=doubleArrow;whiteSpace=wrap;html=1;" vertex="1" parent="1">
          <mxGeometry x="390" y="190" width="130" height="110" as="geometry" />
        </mxCell>
        <mxCell id="su5k78VnVavpaH0BT2L8-64" value="&lt;font style=&quot;font-size: 22px;&quot;&gt;&lt;b&gt;project-core&lt;/b&gt;&lt;/font&gt;" style="rounded=1;whiteSpace=wrap;html=1;" vertex="1" parent="1">
          <mxGeometry x="696" y="220" width="120" height="60" as="geometry" />
        </mxCell>
      </root>
    </mxGraphModel>
  </diagram>
</mxfile>
